solid OpenSCAD_Model
  facet normal -1 0 0
    outer loop
      vertex 5 5 0
      vertex 5 28 0.299999
      vertex 5 28 0
    endloop
  endfacet
  facet normal -1 -0 0
    outer loop
      vertex 5 28 0.299999
      vertex 5 5 0
      vertex 5 5 0.299999
    endloop
  endfacet
  facet normal 0 0 1
    outer loop
      vertex 28 28 0.299999
      vertex 27 27 0.299999
      vertex 28 5 0.299999
    endloop
  endfacet
  facet normal 0 0 1
    outer loop
      vertex 28 28 0.299999
      vertex 6 27 0.299999
      vertex 27 27 0.299999
    endloop
  endfacet
  facet normal 0 0 1
    outer loop
      vertex 6 27 0.299999
      vertex 5 28 0.299999
      vertex 6 6 0.299999
    endloop
  endfacet
  facet normal -0 0 1
    outer loop
      vertex 5 28 0.299999
      vertex 6 27 0.299999
      vertex 28 28 0.299999
    endloop
  endfacet
  facet normal -0 0 1
    outer loop
      vertex 27 6 0.299999
      vertex 28 5 0.299999
      vertex 27 27 0.299999
    endloop
  endfacet
  facet normal -0 0 1
    outer loop
      vertex 6 6 0.299999
      vertex 28 5 0.299999
      vertex 27 6 0.299999
    endloop
  endfacet
  facet normal 0 0 1
    outer loop
      vertex 6 6 0.299999
      vertex 5 5 0.299999
      vertex 28 5 0.299999
    endloop
  endfacet
  facet normal 0 0 1
    outer loop
      vertex 5 5 0.299999
      vertex 6 6 0.299999
      vertex 5 28 0.299999
    endloop
  endfacet
  facet normal 1 -0 0
    outer loop
      vertex 28 5 0.299999
      vertex 28 28 0
      vertex 28 28 0.299999
    endloop
  endfacet
  facet normal 1 0 0
    outer loop
      vertex 28 28 0
      vertex 28 5 0.299999
      vertex 28 5 0
    endloop
  endfacet
  facet normal 0 1 -0
    outer loop
      vertex 28 28 0
      vertex 5 28 0.299999
      vertex 28 28 0.299999
    endloop
  endfacet
  facet normal 0 1 0
    outer loop
      vertex 5 28 0.299999
      vertex 28 28 0
      vertex 5 28 0
    endloop
  endfacet
  facet normal 0 0 -1
    outer loop
      vertex 28 5 0
      vertex 27 6 0
      vertex 28 28 0
    endloop
  endfacet
  facet normal 0 0 -1
    outer loop
      vertex 28 5 0
      vertex 6 6 0
      vertex 27 6 0
    endloop
  endfacet
  facet normal -0 0 -1
    outer loop
      vertex 6 6 0
      vertex 5 5 0
      vertex 6 27 0
    endloop
  endfacet
  facet normal 0 0 -1
    outer loop
      vertex 5 5 0
      vertex 6 6 0
      vertex 28 5 0
    endloop
  endfacet
  facet normal 0 0 -1
    outer loop
      vertex 27 27 0
      vertex 28 28 0
      vertex 27 6 0
    endloop
  endfacet
  facet normal 0 0 -1
    outer loop
      vertex 6 27 0
      vertex 28 28 0
      vertex 27 27 0
    endloop
  endfacet
  facet normal 0 0 -1
    outer loop
      vertex 6 27 0
      vertex 5 28 0
      vertex 28 28 0
    endloop
  endfacet
  facet normal 0 0 -1
    outer loop
      vertex 5 28 0
      vertex 6 27 0
      vertex 5 5 0
    endloop
  endfacet
  facet normal 0 -1 0
    outer loop
      vertex 5 5 0
      vertex 28 5 0.299999
      vertex 5 5 0.299999
    endloop
  endfacet
  facet normal 0 -1 -0
    outer loop
      vertex 28 5 0.299999
      vertex 5 5 0
      vertex 28 5 0
    endloop
  endfacet
  facet normal 1 -0 0
    outer loop
      vertex 6 6 0.299999
      vertex 6 27 0
      vertex 6 27 0.299999
    endloop
  endfacet
  facet normal 1 0 0
    outer loop
      vertex 6 27 0
      vertex 6 6 0.299999
      vertex 6 6 0
    endloop
  endfacet
  facet normal -1 0 0
    outer loop
      vertex 27 6 0
      vertex 27 27 0.299999
      vertex 27 27 0
    endloop
  endfacet
  facet normal -1 -0 0
    outer loop
      vertex 27 27 0.299999
      vertex 27 6 0
      vertex 27 6 0.299999
    endloop
  endfacet
  facet normal 0 1 -0
    outer loop
      vertex 27 6 0
      vertex 6 6 0.299999
      vertex 27 6 0.299999
    endloop
  endfacet
  facet normal 0 1 0
    outer loop
      vertex 6 6 0.299999
      vertex 27 6 0
      vertex 6 6 0
    endloop
  endfacet
  facet normal 0 -1 0
    outer loop
      vertex 6 27 0
      vertex 27 27 0.299999
      vertex 6 27 0.299999
    endloop
  endfacet
  facet normal 0 -1 -0
    outer loop
      vertex 27 27 0.299999
      vertex 6 27 0
      vertex 27 27 0
    endloop
  endfacet
  facet normal -1 0 0
    outer loop
      vertex 6.5 6.5 0
      vertex 6.5 26.5 0.299999
      vertex 6.5 26.5 0
    endloop
  endfacet
  facet normal -1 -0 0
    outer loop
      vertex 6.5 26.5 0.299999
      vertex 6.5 6.5 0
      vertex 6.5 6.5 0.299999
    endloop
  endfacet
  facet normal -0 0 1
    outer loop
      vertex 6.5 26.5 0.299999
      vertex 26.5 6.5 0.299999
      vertex 26.5 26.5 0.299999
    endloop
  endfacet
  facet normal 0 0 1
    outer loop
      vertex 26.5 6.5 0.299999
      vertex 6.5 26.5 0.299999
      vertex 6.5 6.5 0.299999
    endloop
  endfacet
  facet normal 1 -0 0
    outer loop
      vertex 26.5 6.5 0.299999
      vertex 26.5 26.5 0
      vertex 26.5 26.5 0.299999
    endloop
  endfacet
  facet normal 1 0 0
    outer loop
      vertex 26.5 26.5 0
      vertex 26.5 6.5 0.299999
      vertex 26.5 6.5 0
    endloop
  endfacet
  facet normal 0 1 -0
    outer loop
      vertex 26.5 26.5 0
      vertex 6.5 26.5 0.299999
      vertex 26.5 26.5 0.299999
    endloop
  endfacet
  facet normal 0 1 0
    outer loop
      vertex 6.5 26.5 0.299999
      vertex 26.5 26.5 0
      vertex 6.5 26.5 0
    endloop
  endfacet
  facet normal 0 0 -1
    outer loop
      vertex 6.5 6.5 0
      vertex 26.5 26.5 0
      vertex 26.5 6.5 0
    endloop
  endfacet
  facet normal -0 0 -1
    outer loop
      vertex 26.5 26.5 0
      vertex 6.5 6.5 0
      vertex 6.5 26.5 0
    endloop
  endfacet
  facet normal 0 -1 0
    outer loop
      vertex 6.5 6.5 0
      vertex 26.5 6.5 0.299999
      vertex 6.5 6.5 0.299999
    endloop
  endfacet
  facet normal 0 -1 -0
    outer loop
      vertex 26.5 6.5 0.299999
      vertex 6.5 6.5 0
      vertex 26.5 6.5 0
    endloop
  endfacet
  facet normal -1 0 0
    outer loop
      vertex 90 5 0
      vertex 90 28 0.299999
      vertex 90 28 0
    endloop
  endfacet
  facet normal -1 -0 0
    outer loop
      vertex 90 28 0.299999
      vertex 90 5 0
      vertex 90 5 0.299999
    endloop
  endfacet
  facet normal 0 0 1
    outer loop
      vertex 113 28 0.299999
      vertex 112 27 0.299999
      vertex 113 5 0.299999
    endloop
  endfacet
  facet normal 0 0 1
    outer loop
      vertex 113 28 0.299999
      vertex 91 27 0.299999
      vertex 112 27 0.299999
    endloop
  endfacet
  facet normal 0 0 1
    outer loop
      vertex 91 27 0.299999
      vertex 90 28 0.299999
      vertex 91 6 0.299999
    endloop
  endfacet
  facet normal -0 0 1
    outer loop
      vertex 90 28 0.299999
      vertex 91 27 0.299999
      vertex 113 28 0.299999
    endloop
  endfacet
  facet normal -0 0 1
    outer loop
      vertex 112 6 0.299999
      vertex 113 5 0.299999
      vertex 112 27 0.299999
    endloop
  endfacet
  facet normal -0 0 1
    outer loop
      vertex 91 6 0.299999
      vertex 113 5 0.299999
      vertex 112 6 0.299999
    endloop
  endfacet
  facet normal 0 0 1
    outer loop
      vertex 91 6 0.299999
      vertex 90 5 0.299999
      vertex 113 5 0.299999
    endloop
  endfacet
  facet normal 0 0 1
    outer loop
      vertex 90 5 0.299999
      vertex 91 6 0.299999
      vertex 90 28 0.299999
    endloop
  endfacet
  facet normal 1 -0 0
    outer loop
      vertex 113 5 0.299999
      vertex 113 28 0
      vertex 113 28 0.299999
    endloop
  endfacet
  facet normal 1 0 0
    outer loop
      vertex 113 28 0
      vertex 113 5 0.299999
      vertex 113 5 0
    endloop
  endfacet
  facet normal 0 1 -0
    outer loop
      vertex 113 28 0
      vertex 90 28 0.299999
      vertex 113 28 0.299999
    endloop
  endfacet
  facet normal 0 1 0
    outer loop
      vertex 90 28 0.299999
      vertex 113 28 0
      vertex 90 28 0
    endloop
  endfacet
  facet normal 0 0 -1
    outer loop
      vertex 113 5 0
      vertex 112 6 0
      vertex 113 28 0
    endloop
  endfacet
  facet normal 0 0 -1
    outer loop
      vertex 113 5 0
      vertex 91 6 0
      vertex 112 6 0
    endloop
  endfacet
  facet normal -0 0 -1
    outer loop
      vertex 91 6 0
      vertex 90 5 0
      vertex 91 27 0
    endloop
  endfacet
  facet normal 0 0 -1
    outer loop
      vertex 90 5 0
      vertex 91 6 0
      vertex 113 5 0
    endloop
  endfacet
  facet normal 0 0 -1
    outer loop
      vertex 112 27 0
      vertex 113 28 0
      vertex 112 6 0
    endloop
  endfacet
  facet normal 0 0 -1
    outer loop
      vertex 91 27 0
      vertex 113 28 0
      vertex 112 27 0
    endloop
  endfacet
  facet normal 0 0 -1
    outer loop
      vertex 91 27 0
      vertex 90 28 0
      vertex 113 28 0
    endloop
  endfacet
  facet normal 0 0 -1
    outer loop
      vertex 90 28 0
      vertex 91 27 0
      vertex 90 5 0
    endloop
  endfacet
  facet normal 0 -1 0
    outer loop
      vertex 90 5 0
      vertex 113 5 0.299999
      vertex 90 5 0.299999
    endloop
  endfacet
  facet normal 0 -1 -0
    outer loop
      vertex 113 5 0.299999
      vertex 90 5 0
      vertex 113 5 0
    endloop
  endfacet
  facet normal 1 -0 0
    outer loop
      vertex 91 6 0.299999
      vertex 91 27 0
      vertex 91 27 0.299999
    endloop
  endfacet
  facet normal 1 0 0
    outer loop
      vertex 91 27 0
      vertex 91 6 0.299999
      vertex 91 6 0
    endloop
  endfacet
  facet normal -1 0 0
    outer loop
      vertex 112 6 0
      vertex 112 27 0.299999
      vertex 112 27 0
    endloop
  endfacet
  facet normal -1 -0 0
    outer loop
      vertex 112 27 0.299999
      vertex 112 6 0
      vertex 112 6 0.299999
    endloop
  endfacet
  facet normal 0 1 -0
    outer loop
      vertex 112 6 0
      vertex 91 6 0.299999
      vertex 112 6 0.299999
    endloop
  endfacet
  facet normal 0 1 0
    outer loop
      vertex 91 6 0.299999
      vertex 112 6 0
      vertex 91 6 0
    endloop
  endfacet
  facet normal 0 -1 0
    outer loop
      vertex 91 27 0
      vertex 112 27 0.299999
      vertex 91 27 0.299999
    endloop
  endfacet
  facet normal 0 -1 -0
    outer loop
      vertex 112 27 0.299999
      vertex 91 27 0
      vertex 112 27 0
    endloop
  endfacet
  facet normal -1 0 0
    outer loop
      vertex 91.5 6.5 0
      vertex 91.5 26.5 0.299999
      vertex 91.5 26.5 0
    endloop
  endfacet
  facet normal -1 -0 0
    outer loop
      vertex 91.5 26.5 0.299999
      vertex 91.5 6.5 0
      vertex 91.5 6.5 0.299999
    endloop
  endfacet
  facet normal -0 0 1
    outer loop
      vertex 91.5 26.5 0.299999
      vertex 111.5 6.5 0.299999
      vertex 111.5 26.5 0.299999
    endloop
  endfacet
  facet normal 0 0 1
    outer loop
      vertex 111.5 6.5 0.299999
      vertex 91.5 26.5 0.299999
      vertex 91.5 6.5 0.299999
    endloop
  endfacet
  facet normal 1 -0 0
    outer loop
      vertex 111.5 6.5 0.299999
      vertex 111.5 26.5 0
      vertex 111.5 26.5 0.299999
    endloop
  endfacet
  facet normal 1 0 0
    outer loop
      vertex 111.5 26.5 0
      vertex 111.5 6.5 0.299999
      vertex 111.5 6.5 0
    endloop
  endfacet
  facet normal 0 1 -0
    outer loop
      vertex 111.5 26.5 0
      vertex 91.5 26.5 0.299999
      vertex 111.5 26.5 0.299999
    endloop
  endfacet
  facet normal 0 1 0
    outer loop
      vertex 91.5 26.5 0.299999
      vertex 111.5 26.5 0
      vertex 91.5 26.5 0
    endloop
  endfacet
  facet normal 0 0 -1
    outer loop
      vertex 91.5 6.5 0
      vertex 111.5 26.5 0
      vertex 111.5 6.5 0
    endloop
  endfacet
  facet normal -0 0 -1
    outer loop
      vertex 111.5 26.5 0
      vertex 91.5 6.5 0
      vertex 91.5 26.5 0
    endloop
  endfacet
  facet normal 0 -1 0
    outer loop
      vertex 91.5 6.5 0
      vertex 111.5 6.5 0.299999
      vertex 91.5 6.5 0.299999
    endloop
  endfacet
  facet normal 0 -1 -0
    outer loop
      vertex 111.5 6.5 0.299999
      vertex 91.5 6.5 0
      vertex 111.5 6.5 0
    endloop
  endfacet
  facet normal -1 0 0
    outer loop
      vertex 175 5 0
      vertex 175 28 0.299999
      vertex 175 28 0
    endloop
  endfacet
  facet normal -1 -0 0
    outer loop
      vertex 175 28 0.299999
      vertex 175 5 0
      vertex 175 5 0.299999
    endloop
  endfacet
  facet normal 0 0 1
    outer loop
      vertex 198 28 0.299999
      vertex 197 27 0.299999
      vertex 198 5 0.299999
    endloop
  endfacet
  facet normal 0 0 1
    outer loop
      vertex 198 28 0.299999
      vertex 176 27 0.299999
      vertex 197 27 0.299999
    endloop
  endfacet
  facet normal 0 0 1
    outer loop
      vertex 176 27 0.299999
      vertex 175 28 0.299999
      vertex 176 6 0.299999
    endloop
  endfacet
  facet normal -0 0 1
    outer loop
      vertex 175 28 0.299999
      vertex 176 27 0.299999
      vertex 198 28 0.299999
    endloop
  endfacet
  facet normal -0 0 1
    outer loop
      vertex 197 6 0.299999
      vertex 198 5 0.299999
      vertex 197 27 0.299999
    endloop
  endfacet
  facet normal -0 0 1
    outer loop
      vertex 176 6 0.299999
      vertex 198 5 0.299999
      vertex 197 6 0.299999
    endloop
  endfacet
  facet normal 0 0 1
    outer loop
      vertex 176 6 0.299999
      vertex 175 5 0.299999
      vertex 198 5 0.299999
    endloop
  endfacet
  facet normal 0 0 1
    outer loop
      vertex 175 5 0.299999
      vertex 176 6 0.299999
      vertex 175 28 0.299999
    endloop
  endfacet
  facet normal 1 -0 0
    outer loop
      vertex 198 5 0.299999
      vertex 198 28 0
      vertex 198 28 0.299999
    endloop
  endfacet
  facet normal 1 0 0
    outer loop
      vertex 198 28 0
      vertex 198 5 0.299999
      vertex 198 5 0
    endloop
  endfacet
  facet normal 0 1 -0
    outer loop
      vertex 198 28 0
      vertex 175 28 0.299999
      vertex 198 28 0.299999
    endloop
  endfacet
  facet normal 0 1 0
    outer loop
      vertex 175 28 0.299999
      vertex 198 28 0
      vertex 175 28 0
    endloop
  endfacet
  facet normal 0 0 -1
    outer loop
      vertex 198 5 0
      vertex 197 6 0
      vertex 198 28 0
    endloop
  endfacet
  facet normal 0 0 -1
    outer loop
      vertex 198 5 0
      vertex 176 6 0
      vertex 197 6 0
    endloop
  endfacet
  facet normal -0 0 -1
    outer loop
      vertex 176 6 0
      vertex 175 5 0
      vertex 176 27 0
    endloop
  endfacet
  facet normal 0 0 -1
    outer loop
      vertex 175 5 0
      vertex 176 6 0
      vertex 198 5 0
    endloop
  endfacet
  facet normal 0 0 -1
    outer loop
      vertex 197 27 0
      vertex 198 28 0
      vertex 197 6 0
    endloop
  endfacet
  facet normal 0 0 -1
    outer loop
      vertex 176 27 0
      vertex 198 28 0
      vertex 197 27 0
    endloop
  endfacet
  facet normal 0 0 -1
    outer loop
      vertex 176 27 0
      vertex 175 28 0
      vertex 198 28 0
    endloop
  endfacet
  facet normal 0 0 -1
    outer loop
      vertex 175 28 0
      vertex 176 27 0
      vertex 175 5 0
    endloop
  endfacet
  facet normal 0 -1 0
    outer loop
      vertex 175 5 0
      vertex 198 5 0.299999
      vertex 175 5 0.299999
    endloop
  endfacet
  facet normal 0 -1 -0
    outer loop
      vertex 198 5 0.299999
      vertex 175 5 0
      vertex 198 5 0
    endloop
  endfacet
  facet normal 1 -0 0
    outer loop
      vertex 176 6 0.299999
      vertex 176 27 0
      vertex 176 27 0.299999
    endloop
  endfacet
  facet normal 1 0 0
    outer loop
      vertex 176 27 0
      vertex 176 6 0.299999
      vertex 176 6 0
    endloop
  endfacet
  facet normal -1 0 0
    outer loop
      vertex 197 6 0
      vertex 197 27 0.299999
      vertex 197 27 0
    endloop
  endfacet
  facet normal -1 -0 0
    outer loop
      vertex 197 27 0.299999
      vertex 197 6 0
      vertex 197 6 0.299999
    endloop
  endfacet
  facet normal 0 1 -0
    outer loop
      vertex 197 6 0
      vertex 176 6 0.299999
      vertex 197 6 0.299999
    endloop
  endfacet
  facet normal 0 1 0
    outer loop
      vertex 176 6 0.299999
      vertex 197 6 0
      vertex 176 6 0
    endloop
  endfacet
  facet normal 0 -1 0
    outer loop
      vertex 176 27 0
      vertex 197 27 0.299999
      vertex 176 27 0.299999
    endloop
  endfacet
  facet normal 0 -1 -0
    outer loop
      vertex 197 27 0.299999
      vertex 176 27 0
      vertex 197 27 0
    endloop
  endfacet
  facet normal -1 0 0
    outer loop
      vertex 176.5 6.5 0
      vertex 176.5 26.5 0.299999
      vertex 176.5 26.5 0
    endloop
  endfacet
  facet normal -1 -0 0
    outer loop
      vertex 176.5 26.5 0.299999
      vertex 176.5 6.5 0
      vertex 176.5 6.5 0.299999
    endloop
  endfacet
  facet normal -0 0 1
    outer loop
      vertex 176.5 26.5 0.299999
      vertex 196.5 6.5 0.299999
      vertex 196.5 26.5 0.299999
    endloop
  endfacet
  facet normal 0 0 1
    outer loop
      vertex 196.5 6.5 0.299999
      vertex 176.5 26.5 0.299999
      vertex 176.5 6.5 0.299999
    endloop
  endfacet
  facet normal 1 -0 0
    outer loop
      vertex 196.5 6.5 0.299999
      vertex 196.5 26.5 0
      vertex 196.5 26.5 0.299999
    endloop
  endfacet
  facet normal 1 0 0
    outer loop
      vertex 196.5 26.5 0
      vertex 196.5 6.5 0.299999
      vertex 196.5 6.5 0
    endloop
  endfacet
  facet normal 0 1 -0
    outer loop
      vertex 196.5 26.5 0
      vertex 176.5 26.5 0.299999
      vertex 196.5 26.5 0.299999
    endloop
  endfacet
  facet normal 0 1 0
    outer loop
      vertex 176.5 26.5 0.299999
      vertex 196.5 26.5 0
      vertex 176.5 26.5 0
    endloop
  endfacet
  facet normal 0 0 -1
    outer loop
      vertex 176.5 6.5 0
      vertex 196.5 26.5 0
      vertex 196.5 6.5 0
    endloop
  endfacet
  facet normal -0 0 -1
    outer loop
      vertex 196.5 26.5 0
      vertex 176.5 6.5 0
      vertex 176.5 26.5 0
    endloop
  endfacet
  facet normal 0 -1 0
    outer loop
      vertex 176.5 6.5 0
      vertex 196.5 6.5 0.299999
      vertex 176.5 6.5 0.299999
    endloop
  endfacet
  facet normal 0 -1 -0
    outer loop
      vertex 196.5 6.5 0.299999
      vertex 176.5 6.5 0
      vertex 196.5 6.5 0
    endloop
  endfacet
  facet normal -1 0 0
    outer loop
      vertex 5 83 0
      vertex 5 106 0.299999
      vertex 5 106 0
    endloop
  endfacet
  facet normal -1 -0 0
    outer loop
      vertex 5 106 0.299999
      vertex 5 83 0
      vertex 5 83 0.299999
    endloop
  endfacet
  facet normal 0 0 1
    outer loop
      vertex 28 106 0.299999
      vertex 27 105 0.299999
      vertex 28 83 0.299999
    endloop
  endfacet
  facet normal 0 0 1
    outer loop
      vertex 28 106 0.299999
      vertex 6 105 0.299999
      vertex 27 105 0.299999
    endloop
  endfacet
  facet normal 0 0 1
    outer loop
      vertex 6 105 0.299999
      vertex 5 106 0.299999
      vertex 6 84 0.299999
    endloop
  endfacet
  facet normal -0 0 1
    outer loop
      vertex 5 106 0.299999
      vertex 6 105 0.299999
      vertex 28 106 0.299999
    endloop
  endfacet
  facet normal -0 0 1
    outer loop
      vertex 27 84 0.299999
      vertex 28 83 0.299999
      vertex 27 105 0.299999
    endloop
  endfacet
  facet normal -0 0 1
    outer loop
      vertex 6 84 0.299999
      vertex 28 83 0.299999
      vertex 27 84 0.299999
    endloop
  endfacet
  facet normal 0 0 1
    outer loop
      vertex 6 84 0.299999
      vertex 5 83 0.299999
      vertex 28 83 0.299999
    endloop
  endfacet
  facet normal 0 0 1
    outer loop
      vertex 5 83 0.299999
      vertex 6 84 0.299999
      vertex 5 106 0.299999
    endloop
  endfacet
  facet normal 1 -0 0
    outer loop
      vertex 28 83 0.299999
      vertex 28 106 0
      vertex 28 106 0.299999
    endloop
  endfacet
  facet normal 1 0 0
    outer loop
      vertex 28 106 0
      vertex 28 83 0.299999
      vertex 28 83 0
    endloop
  endfacet
  facet normal 0 1 -0
    outer loop
      vertex 28 106 0
      vertex 5 106 0.299999
      vertex 28 106 0.299999
    endloop
  endfacet
  facet normal 0 1 0
    outer loop
      vertex 5 106 0.299999
      vertex 28 106 0
      vertex 5 106 0
    endloop
  endfacet
  facet normal 0 0 -1
    outer loop
      vertex 28 83 0
      vertex 27 84 0
      vertex 28 106 0
    endloop
  endfacet
  facet normal 0 0 -1
    outer loop
      vertex 28 83 0
      vertex 6 84 0
      vertex 27 84 0
    endloop
  endfacet
  facet normal -0 0 -1
    outer loop
      vertex 6 84 0
      vertex 5 83 0
      vertex 6 105 0
    endloop
  endfacet
  facet normal 0 0 -1
    outer loop
      vertex 5 83 0
      vertex 6 84 0
      vertex 28 83 0
    endloop
  endfacet
  facet normal 0 0 -1
    outer loop
      vertex 27 105 0
      vertex 28 106 0
      vertex 27 84 0
    endloop
  endfacet
  facet normal 0 0 -1
    outer loop
      vertex 6 105 0
      vertex 28 106 0
      vertex 27 105 0
    endloop
  endfacet
  facet normal 0 0 -1
    outer loop
      vertex 6 105 0
      vertex 5 106 0
      vertex 28 106 0
    endloop
  endfacet
  facet normal 0 0 -1
    outer loop
      vertex 5 106 0
      vertex 6 105 0
      vertex 5 83 0
    endloop
  endfacet
  facet normal 0 -1 0
    outer loop
      vertex 5 83 0
      vertex 28 83 0.299999
      vertex 5 83 0.299999
    endloop
  endfacet
  facet normal 0 -1 -0
    outer loop
      vertex 28 83 0.299999
      vertex 5 83 0
      vertex 28 83 0
    endloop
  endfacet
  facet normal 1 -0 0
    outer loop
      vertex 6 84 0.299999
      vertex 6 105 0
      vertex 6 105 0.299999
    endloop
  endfacet
  facet normal 1 0 0
    outer loop
      vertex 6 105 0
      vertex 6 84 0.299999
      vertex 6 84 0
    endloop
  endfacet
  facet normal -1 0 0
    outer loop
      vertex 27 84 0
      vertex 27 105 0.299999
      vertex 27 105 0
    endloop
  endfacet
  facet normal -1 -0 0
    outer loop
      vertex 27 105 0.299999
      vertex 27 84 0
      vertex 27 84 0.299999
    endloop
  endfacet
  facet normal 0 1 -0
    outer loop
      vertex 27 84 0
      vertex 6 84 0.299999
      vertex 27 84 0.299999
    endloop
  endfacet
  facet normal 0 1 0
    outer loop
      vertex 6 84 0.299999
      vertex 27 84 0
      vertex 6 84 0
    endloop
  endfacet
  facet normal 0 -1 0
    outer loop
      vertex 6 105 0
      vertex 27 105 0.299999
      vertex 6 105 0.299999
    endloop
  endfacet
  facet normal 0 -1 -0
    outer loop
      vertex 27 105 0.299999
      vertex 6 105 0
      vertex 27 105 0
    endloop
  endfacet
  facet normal -1 0 0
    outer loop
      vertex 6.5 84.5 0
      vertex 6.5 104.5 0.299999
      vertex 6.5 104.5 0
    endloop
  endfacet
  facet normal -1 -0 0
    outer loop
      vertex 6.5 104.5 0.299999
      vertex 6.5 84.5 0
      vertex 6.5 84.5 0.299999
    endloop
  endfacet
  facet normal -0 0 1
    outer loop
      vertex 6.5 104.5 0.299999
      vertex 26.5 84.5 0.299999
      vertex 26.5 104.5 0.299999
    endloop
  endfacet
  facet normal 0 0 1
    outer loop
      vertex 26.5 84.5 0.299999
      vertex 6.5 104.5 0.299999
      vertex 6.5 84.5 0.299999
    endloop
  endfacet
  facet normal 1 -0 0
    outer loop
      vertex 26.5 84.5 0.299999
      vertex 26.5 104.5 0
      vertex 26.5 104.5 0.299999
    endloop
  endfacet
  facet normal 1 0 0
    outer loop
      vertex 26.5 104.5 0
      vertex 26.5 84.5 0.299999
      vertex 26.5 84.5 0
    endloop
  endfacet
  facet normal 0 1 -0
    outer loop
      vertex 26.5 104.5 0
      vertex 6.5 104.5 0.299999
      vertex 26.5 104.5 0.299999
    endloop
  endfacet
  facet normal 0 1 0
    outer loop
      vertex 6.5 104.5 0.299999
      vertex 26.5 104.5 0
      vertex 6.5 104.5 0
    endloop
  endfacet
  facet normal 0 0 -1
    outer loop
      vertex 6.5 84.5 0
      vertex 26.5 104.5 0
      vertex 26.5 84.5 0
    endloop
  endfacet
  facet normal -0 0 -1
    outer loop
      vertex 26.5 104.5 0
      vertex 6.5 84.5 0
      vertex 6.5 104.5 0
    endloop
  endfacet
  facet normal 0 -1 0
    outer loop
      vertex 6.5 84.5 0
      vertex 26.5 84.5 0.299999
      vertex 6.5 84.5 0.299999
    endloop
  endfacet
  facet normal 0 -1 -0
    outer loop
      vertex 26.5 84.5 0.299999
      vertex 6.5 84.5 0
      vertex 26.5 84.5 0
    endloop
  endfacet
  facet normal -1 0 0
    outer loop
      vertex 90 83 0
      vertex 90 106 0.299999
      vertex 90 106 0
    endloop
  endfacet
  facet normal -1 -0 0
    outer loop
      vertex 90 106 0.299999
      vertex 90 83 0
      vertex 90 83 0.299999
    endloop
  endfacet
  facet normal 0 0 1
    outer loop
      vertex 113 106 0.299999
      vertex 112 105 0.299999
      vertex 113 83 0.299999
    endloop
  endfacet
  facet normal 0 0 1
    outer loop
      vertex 113 106 0.299999
      vertex 91 105 0.299999
      vertex 112 105 0.299999
    endloop
  endfacet
  facet normal 0 0 1
    outer loop
      vertex 91 105 0.299999
      vertex 90 106 0.299999
      vertex 91 84 0.299999
    endloop
  endfacet
  facet normal -0 0 1
    outer loop
      vertex 90 106 0.299999
      vertex 91 105 0.299999
      vertex 113 106 0.299999
    endloop
  endfacet
  facet normal -0 0 1
    outer loop
      vertex 112 84 0.299999
      vertex 113 83 0.299999
      vertex 112 105 0.299999
    endloop
  endfacet
  facet normal -0 0 1
    outer loop
      vertex 91 84 0.299999
      vertex 113 83 0.299999
      vertex 112 84 0.299999
    endloop
  endfacet
  facet normal 0 0 1
    outer loop
      vertex 91 84 0.299999
      vertex 90 83 0.299999
      vertex 113 83 0.299999
    endloop
  endfacet
  facet normal 0 0 1
    outer loop
      vertex 90 83 0.299999
      vertex 91 84 0.299999
      vertex 90 106 0.299999
    endloop
  endfacet
  facet normal 1 -0 0
    outer loop
      vertex 113 83 0.299999
      vertex 113 106 0
      vertex 113 106 0.299999
    endloop
  endfacet
  facet normal 1 0 0
    outer loop
      vertex 113 106 0
      vertex 113 83 0.299999
      vertex 113 83 0
    endloop
  endfacet
  facet normal 0 1 -0
    outer loop
      vertex 113 106 0
      vertex 90 106 0.299999
      vertex 113 106 0.299999
    endloop
  endfacet
  facet normal 0 1 0
    outer loop
      vertex 90 106 0.299999
      vertex 113 106 0
      vertex 90 106 0
    endloop
  endfacet
  facet normal 0 0 -1
    outer loop
      vertex 113 83 0
      vertex 112 84 0
      vertex 113 106 0
    endloop
  endfacet
  facet normal 0 0 -1
    outer loop
      vertex 113 83 0
      vertex 91 84 0
      vertex 112 84 0
    endloop
  endfacet
  facet normal -0 0 -1
    outer loop
      vertex 91 84 0
      vertex 90 83 0
      vertex 91 105 0
    endloop
  endfacet
  facet normal 0 0 -1
    outer loop
      vertex 90 83 0
      vertex 91 84 0
      vertex 113 83 0
    endloop
  endfacet
  facet normal 0 0 -1
    outer loop
      vertex 112 105 0
      vertex 113 106 0
      vertex 112 84 0
    endloop
  endfacet
  facet normal 0 0 -1
    outer loop
      vertex 91 105 0
      vertex 113 106 0
      vertex 112 105 0
    endloop
  endfacet
  facet normal 0 0 -1
    outer loop
      vertex 91 105 0
      vertex 90 106 0
      vertex 113 106 0
    endloop
  endfacet
  facet normal 0 0 -1
    outer loop
      vertex 90 106 0
      vertex 91 105 0
      vertex 90 83 0
    endloop
  endfacet
  facet normal 0 -1 0
    outer loop
      vertex 90 83 0
      vertex 113 83 0.299999
      vertex 90 83 0.299999
    endloop
  endfacet
  facet normal 0 -1 -0
    outer loop
      vertex 113 83 0.299999
      vertex 90 83 0
      vertex 113 83 0
    endloop
  endfacet
  facet normal 1 -0 0
    outer loop
      vertex 91 84 0.299999
      vertex 91 105 0
      vertex 91 105 0.299999
    endloop
  endfacet
  facet normal 1 0 0
    outer loop
      vertex 91 105 0
      vertex 91 84 0.299999
      vertex 91 84 0
    endloop
  endfacet
  facet normal -1 0 0
    outer loop
      vertex 112 84 0
      vertex 112 105 0.299999
      vertex 112 105 0
    endloop
  endfacet
  facet normal -1 -0 0
    outer loop
      vertex 112 105 0.299999
      vertex 112 84 0
      vertex 112 84 0.299999
    endloop
  endfacet
  facet normal 0 1 -0
    outer loop
      vertex 112 84 0
      vertex 91 84 0.299999
      vertex 112 84 0.299999
    endloop
  endfacet
  facet normal 0 1 0
    outer loop
      vertex 91 84 0.299999
      vertex 112 84 0
      vertex 91 84 0
    endloop
  endfacet
  facet normal 0 -1 0
    outer loop
      vertex 91 105 0
      vertex 112 105 0.299999
      vertex 91 105 0.299999
    endloop
  endfacet
  facet normal 0 -1 -0
    outer loop
      vertex 112 105 0.299999
      vertex 91 105 0
      vertex 112 105 0
    endloop
  endfacet
  facet normal -1 0 0
    outer loop
      vertex 91.5 84.5 0
      vertex 91.5 104.5 0.299999
      vertex 91.5 104.5 0
    endloop
  endfacet
  facet normal -1 -0 0
    outer loop
      vertex 91.5 104.5 0.299999
      vertex 91.5 84.5 0
      vertex 91.5 84.5 0.299999
    endloop
  endfacet
  facet normal -0 0 1
    outer loop
      vertex 91.5 104.5 0.299999
      vertex 111.5 84.5 0.299999
      vertex 111.5 104.5 0.299999
    endloop
  endfacet
  facet normal 0 0 1
    outer loop
      vertex 111.5 84.5 0.299999
      vertex 91.5 104.5 0.299999
      vertex 91.5 84.5 0.299999
    endloop
  endfacet
  facet normal 1 -0 0
    outer loop
      vertex 111.5 84.5 0.299999
      vertex 111.5 104.5 0
      vertex 111.5 104.5 0.299999
    endloop
  endfacet
  facet normal 1 0 0
    outer loop
      vertex 111.5 104.5 0
      vertex 111.5 84.5 0.299999
      vertex 111.5 84.5 0
    endloop
  endfacet
  facet normal 0 1 -0
    outer loop
      vertex 111.5 104.5 0
      vertex 91.5 104.5 0.299999
      vertex 111.5 104.5 0.299999
    endloop
  endfacet
  facet normal 0 1 0
    outer loop
      vertex 91.5 104.5 0.299999
      vertex 111.5 104.5 0
      vertex 91.5 104.5 0
    endloop
  endfacet
  facet normal 0 0 -1
    outer loop
      vertex 91.5 84.5 0
      vertex 111.5 104.5 0
      vertex 111.5 84.5 0
    endloop
  endfacet
  facet normal -0 0 -1
    outer loop
      vertex 111.5 104.5 0
      vertex 91.5 84.5 0
      vertex 91.5 104.5 0
    endloop
  endfacet
  facet normal 0 -1 0
    outer loop
      vertex 91.5 84.5 0
      vertex 111.5 84.5 0.299999
      vertex 91.5 84.5 0.299999
    endloop
  endfacet
  facet normal 0 -1 -0
    outer loop
      vertex 111.5 84.5 0.299999
      vertex 91.5 84.5 0
      vertex 111.5 84.5 0
    endloop
  endfacet
  facet normal -1 0 0
    outer loop
      vertex 175 83 0
      vertex 175 106 0.299999
      vertex 175 106 0
    endloop
  endfacet
  facet normal -1 -0 0
    outer loop
      vertex 175 106 0.299999
      vertex 175 83 0
      vertex 175 83 0.299999
    endloop
  endfacet
  facet normal 0 0 1
    outer loop
      vertex 198 106 0.299999
      vertex 197 105 0.299999
      vertex 198 83 0.299999
    endloop
  endfacet
  facet normal 0 0 1
    outer loop
      vertex 198 106 0.299999
      vertex 176 105 0.299999
      vertex 197 105 0.299999
    endloop
  endfacet
  facet normal 0 0 1
    outer loop
      vertex 176 105 0.299999
      vertex 175 106 0.299999
      vertex 176 84 0.299999
    endloop
  endfacet
  facet normal -0 0 1
    outer loop
      vertex 175 106 0.299999
      vertex 176 105 0.299999
      vertex 198 106 0.299999
    endloop
  endfacet
  facet normal -0 0 1
    outer loop
      vertex 197 84 0.299999
      vertex 198 83 0.299999
      vertex 197 105 0.299999
    endloop
  endfacet
  facet normal -0 0 1
    outer loop
      vertex 176 84 0.299999
      vertex 198 83 0.299999
      vertex 197 84 0.299999
    endloop
  endfacet
  facet normal 0 0 1
    outer loop
      vertex 176 84 0.299999
      vertex 175 83 0.299999
      vertex 198 83 0.299999
    endloop
  endfacet
  facet normal 0 0 1
    outer loop
      vertex 175 83 0.299999
      vertex 176 84 0.299999
      vertex 175 106 0.299999
    endloop
  endfacet
  facet normal 1 -0 0
    outer loop
      vertex 198 83 0.299999
      vertex 198 106 0
      vertex 198 106 0.299999
    endloop
  endfacet
  facet normal 1 0 0
    outer loop
      vertex 198 106 0
      vertex 198 83 0.299999
      vertex 198 83 0
    endloop
  endfacet
  facet normal 0 1 -0
    outer loop
      vertex 198 106 0
      vertex 175 106 0.299999
      vertex 198 106 0.299999
    endloop
  endfacet
  facet normal 0 1 0
    outer loop
      vertex 175 106 0.299999
      vertex 198 106 0
      vertex 175 106 0
    endloop
  endfacet
  facet normal 0 0 -1
    outer loop
      vertex 198 83 0
      vertex 197 84 0
      vertex 198 106 0
    endloop
  endfacet
  facet normal 0 0 -1
    outer loop
      vertex 198 83 0
      vertex 176 84 0
      vertex 197 84 0
    endloop
  endfacet
  facet normal -0 0 -1
    outer loop
      vertex 176 84 0
      vertex 175 83 0
      vertex 176 105 0
    endloop
  endfacet
  facet normal 0 0 -1
    outer loop
      vertex 175 83 0
      vertex 176 84 0
      vertex 198 83 0
    endloop
  endfacet
  facet normal 0 0 -1
    outer loop
      vertex 197 105 0
      vertex 198 106 0
      vertex 197 84 0
    endloop
  endfacet
  facet normal 0 0 -1
    outer loop
      vertex 176 105 0
      vertex 198 106 0
      vertex 197 105 0
    endloop
  endfacet
  facet normal 0 0 -1
    outer loop
      vertex 176 105 0
      vertex 175 106 0
      vertex 198 106 0
    endloop
  endfacet
  facet normal 0 0 -1
    outer loop
      vertex 175 106 0
      vertex 176 105 0
      vertex 175 83 0
    endloop
  endfacet
  facet normal 0 -1 0
    outer loop
      vertex 175 83 0
      vertex 198 83 0.299999
      vertex 175 83 0.299999
    endloop
  endfacet
  facet normal 0 -1 -0
    outer loop
      vertex 198 83 0.299999
      vertex 175 83 0
      vertex 198 83 0
    endloop
  endfacet
  facet normal 1 -0 0
    outer loop
      vertex 176 84 0.299999
      vertex 176 105 0
      vertex 176 105 0.299999
    endloop
  endfacet
  facet normal 1 0 0
    outer loop
      vertex 176 105 0
      vertex 176 84 0.299999
      vertex 176 84 0
    endloop
  endfacet
  facet normal -1 0 0
    outer loop
      vertex 197 84 0
      vertex 197 105 0.299999
      vertex 197 105 0
    endloop
  endfacet
  facet normal -1 -0 0
    outer loop
      vertex 197 105 0.299999
      vertex 197 84 0
      vertex 197 84 0.299999
    endloop
  endfacet
  facet normal 0 1 -0
    outer loop
      vertex 197 84 0
      vertex 176 84 0.299999
      vertex 197 84 0.299999
    endloop
  endfacet
  facet normal 0 1 0
    outer loop
      vertex 176 84 0.299999
      vertex 197 84 0
      vertex 176 84 0
    endloop
  endfacet
  facet normal 0 -1 0
    outer loop
      vertex 176 105 0
      vertex 197 105 0.299999
      vertex 176 105 0.299999
    endloop
  endfacet
  facet normal 0 -1 -0
    outer loop
      vertex 197 105 0.299999
      vertex 176 105 0
      vertex 197 105 0
    endloop
  endfacet
  facet normal -1 0 0
    outer loop
      vertex 176.5 84.5 0
      vertex 176.5 104.5 0.299999
      vertex 176.5 104.5 0
    endloop
  endfacet
  facet normal -1 -0 0
    outer loop
      vertex 176.5 104.5 0.299999
      vertex 176.5 84.5 0
      vertex 176.5 84.5 0.299999
    endloop
  endfacet
  facet normal -0 0 1
    outer loop
      vertex 176.5 104.5 0.299999
      vertex 196.5 84.5 0.299999
      vertex 196.5 104.5 0.299999
    endloop
  endfacet
  facet normal 0 0 1
    outer loop
      vertex 196.5 84.5 0.299999
      vertex 176.5 104.5 0.299999
      vertex 176.5 84.5 0.299999
    endloop
  endfacet
  facet normal 1 -0 0
    outer loop
      vertex 196.5 84.5 0.299999
      vertex 196.5 104.5 0
      vertex 196.5 104.5 0.299999
    endloop
  endfacet
  facet normal 1 0 0
    outer loop
      vertex 196.5 104.5 0
      vertex 196.5 84.5 0.299999
      vertex 196.5 84.5 0
    endloop
  endfacet
  facet normal 0 1 -0
    outer loop
      vertex 196.5 104.5 0
      vertex 176.5 104.5 0.299999
      vertex 196.5 104.5 0.299999
    endloop
  endfacet
  facet normal 0 1 0
    outer loop
      vertex 176.5 104.5 0.299999
      vertex 196.5 104.5 0
      vertex 176.5 104.5 0
    endloop
  endfacet
  facet normal 0 0 -1
    outer loop
      vertex 176.5 84.5 0
      vertex 196.5 104.5 0
      vertex 196.5 84.5 0
    endloop
  endfacet
  facet normal -0 0 -1
    outer loop
      vertex 196.5 104.5 0
      vertex 176.5 84.5 0
      vertex 176.5 104.5 0
    endloop
  endfacet
  facet normal 0 -1 0
    outer loop
      vertex 176.5 84.5 0
      vertex 196.5 84.5 0.299999
      vertex 176.5 84.5 0.299999
    endloop
  endfacet
  facet normal 0 -1 -0
    outer loop
      vertex 196.5 84.5 0.299999
      vertex 176.5 84.5 0
      vertex 196.5 84.5 0
    endloop
  endfacet
  facet normal -1 0 0
    outer loop
      vertex 5 161 0
      vertex 5 184 0.299999
      vertex 5 184 0
    endloop
  endfacet
  facet normal -1 -0 0
    outer loop
      vertex 5 184 0.299999
      vertex 5 161 0
      vertex 5 161 0.299999
    endloop
  endfacet
  facet normal 0 0 1
    outer loop
      vertex 28 184 0.299999
      vertex 27 183 0.299999
      vertex 28 161 0.299999
    endloop
  endfacet
  facet normal 0 0 1
    outer loop
      vertex 28 184 0.299999
      vertex 6 183 0.299999
      vertex 27 183 0.299999
    endloop
  endfacet
  facet normal 0 0 1
    outer loop
      vertex 6 183 0.299999
      vertex 5 184 0.299999
      vertex 6 162 0.299999
    endloop
  endfacet
  facet normal -0 0 1
    outer loop
      vertex 5 184 0.299999
      vertex 6 183 0.299999
      vertex 28 184 0.299999
    endloop
  endfacet
  facet normal -0 0 1
    outer loop
      vertex 27 162 0.299999
      vertex 28 161 0.299999
      vertex 27 183 0.299999
    endloop
  endfacet
  facet normal -0 0 1
    outer loop
      vertex 6 162 0.299999
      vertex 28 161 0.299999
      vertex 27 162 0.299999
    endloop
  endfacet
  facet normal 0 0 1
    outer loop
      vertex 6 162 0.299999
      vertex 5 161 0.299999
      vertex 28 161 0.299999
    endloop
  endfacet
  facet normal 0 0 1
    outer loop
      vertex 5 161 0.299999
      vertex 6 162 0.299999
      vertex 5 184 0.299999
    endloop
  endfacet
  facet normal 1 -0 0
    outer loop
      vertex 28 161 0.299999
      vertex 28 184 0
      vertex 28 184 0.299999
    endloop
  endfacet
  facet normal 1 0 0
    outer loop
      vertex 28 184 0
      vertex 28 161 0.299999
      vertex 28 161 0
    endloop
  endfacet
  facet normal 0 1 -0
    outer loop
      vertex 28 184 0
      vertex 5 184 0.299999
      vertex 28 184 0.299999
    endloop
  endfacet
  facet normal 0 1 0
    outer loop
      vertex 5 184 0.299999
      vertex 28 184 0
      vertex 5 184 0
    endloop
  endfacet
  facet normal 0 0 -1
    outer loop
      vertex 28 161 0
      vertex 27 162 0
      vertex 28 184 0
    endloop
  endfacet
  facet normal 0 0 -1
    outer loop
      vertex 28 161 0
      vertex 6 162 0
      vertex 27 162 0
    endloop
  endfacet
  facet normal -0 0 -1
    outer loop
      vertex 6 162 0
      vertex 5 161 0
      vertex 6 183 0
    endloop
  endfacet
  facet normal 0 0 -1
    outer loop
      vertex 5 161 0
      vertex 6 162 0
      vertex 28 161 0
    endloop
  endfacet
  facet normal 0 0 -1
    outer loop
      vertex 27 183 0
      vertex 28 184 0
      vertex 27 162 0
    endloop
  endfacet
  facet normal 0 0 -1
    outer loop
      vertex 6 183 0
      vertex 28 184 0
      vertex 27 183 0
    endloop
  endfacet
  facet normal 0 0 -1
    outer loop
      vertex 6 183 0
      vertex 5 184 0
      vertex 28 184 0
    endloop
  endfacet
  facet normal 0 0 -1
    outer loop
      vertex 5 184 0
      vertex 6 183 0
      vertex 5 161 0
    endloop
  endfacet
  facet normal 0 -1 0
    outer loop
      vertex 5 161 0
      vertex 28 161 0.299999
      vertex 5 161 0.299999
    endloop
  endfacet
  facet normal 0 -1 -0
    outer loop
      vertex 28 161 0.299999
      vertex 5 161 0
      vertex 28 161 0
    endloop
  endfacet
  facet normal 1 -0 0
    outer loop
      vertex 6 162 0.299999
      vertex 6 183 0
      vertex 6 183 0.299999
    endloop
  endfacet
  facet normal 1 0 0
    outer loop
      vertex 6 183 0
      vertex 6 162 0.299999
      vertex 6 162 0
    endloop
  endfacet
  facet normal -1 0 0
    outer loop
      vertex 27 162 0
      vertex 27 183 0.299999
      vertex 27 183 0
    endloop
  endfacet
  facet normal -1 -0 0
    outer loop
      vertex 27 183 0.299999
      vertex 27 162 0
      vertex 27 162 0.299999
    endloop
  endfacet
  facet normal 0 1 -0
    outer loop
      vertex 27 162 0
      vertex 6 162 0.299999
      vertex 27 162 0.299999
    endloop
  endfacet
  facet normal 0 1 0
    outer loop
      vertex 6 162 0.299999
      vertex 27 162 0
      vertex 6 162 0
    endloop
  endfacet
  facet normal 0 -1 0
    outer loop
      vertex 6 183 0
      vertex 27 183 0.299999
      vertex 6 183 0.299999
    endloop
  endfacet
  facet normal 0 -1 -0
    outer loop
      vertex 27 183 0.299999
      vertex 6 183 0
      vertex 27 183 0
    endloop
  endfacet
  facet normal -1 0 0
    outer loop
      vertex 6.5 162.5 0
      vertex 6.5 182.5 0.299999
      vertex 6.5 182.5 0
    endloop
  endfacet
  facet normal -1 -0 0
    outer loop
      vertex 6.5 182.5 0.299999
      vertex 6.5 162.5 0
      vertex 6.5 162.5 0.299999
    endloop
  endfacet
  facet normal -0 0 1
    outer loop
      vertex 6.5 182.5 0.299999
      vertex 26.5 162.5 0.299999
      vertex 26.5 182.5 0.299999
    endloop
  endfacet
  facet normal 0 0 1
    outer loop
      vertex 26.5 162.5 0.299999
      vertex 6.5 182.5 0.299999
      vertex 6.5 162.5 0.299999
    endloop
  endfacet
  facet normal 1 -0 0
    outer loop
      vertex 26.5 162.5 0.299999
      vertex 26.5 182.5 0
      vertex 26.5 182.5 0.299999
    endloop
  endfacet
  facet normal 1 0 0
    outer loop
      vertex 26.5 182.5 0
      vertex 26.5 162.5 0.299999
      vertex 26.5 162.5 0
    endloop
  endfacet
  facet normal 0 1 -0
    outer loop
      vertex 26.5 182.5 0
      vertex 6.5 182.5 0.299999
      vertex 26.5 182.5 0.299999
    endloop
  endfacet
  facet normal 0 1 0
    outer loop
      vertex 6.5 182.5 0.299999
      vertex 26.5 182.5 0
      vertex 6.5 182.5 0
    endloop
  endfacet
  facet normal 0 0 -1
    outer loop
      vertex 6.5 162.5 0
      vertex 26.5 182.5 0
      vertex 26.5 162.5 0
    endloop
  endfacet
  facet normal -0 0 -1
    outer loop
      vertex 26.5 182.5 0
      vertex 6.5 162.5 0
      vertex 6.5 182.5 0
    endloop
  endfacet
  facet normal 0 -1 0
    outer loop
      vertex 6.5 162.5 0
      vertex 26.5 162.5 0.299999
      vertex 6.5 162.5 0.299999
    endloop
  endfacet
  facet normal 0 -1 -0
    outer loop
      vertex 26.5 162.5 0.299999
      vertex 6.5 162.5 0
      vertex 26.5 162.5 0
    endloop
  endfacet
  facet normal -1 0 0
    outer loop
      vertex 90 161 0
      vertex 90 184 0.299999
      vertex 90 184 0
    endloop
  endfacet
  facet normal -1 -0 0
    outer loop
      vertex 90 184 0.299999
      vertex 90 161 0
      vertex 90 161 0.299999
    endloop
  endfacet
  facet normal 0 0 1
    outer loop
      vertex 113 184 0.299999
      vertex 112 183 0.299999
      vertex 113 161 0.299999
    endloop
  endfacet
  facet normal 0 0 1
    outer loop
      vertex 113 184 0.299999
      vertex 91 183 0.299999
      vertex 112 183 0.299999
    endloop
  endfacet
  facet normal 0 0 1
    outer loop
      vertex 91 183 0.299999
      vertex 90 184 0.299999
      vertex 91 162 0.299999
    endloop
  endfacet
  facet normal -0 0 1
    outer loop
      vertex 90 184 0.299999
      vertex 91 183 0.299999
      vertex 113 184 0.299999
    endloop
  endfacet
  facet normal -0 0 1
    outer loop
      vertex 112 162 0.299999
      vertex 113 161 0.299999
      vertex 112 183 0.299999
    endloop
  endfacet
  facet normal -0 0 1
    outer loop
      vertex 91 162 0.299999
      vertex 113 161 0.299999
      vertex 112 162 0.299999
    endloop
  endfacet
  facet normal 0 0 1
    outer loop
      vertex 91 162 0.299999
      vertex 90 161 0.299999
      vertex 113 161 0.299999
    endloop
  endfacet
  facet normal 0 0 1
    outer loop
      vertex 90 161 0.299999
      vertex 91 162 0.299999
      vertex 90 184 0.299999
    endloop
  endfacet
  facet normal 1 -0 0
    outer loop
      vertex 113 161 0.299999
      vertex 113 184 0
      vertex 113 184 0.299999
    endloop
  endfacet
  facet normal 1 0 0
    outer loop
      vertex 113 184 0
      vertex 113 161 0.299999
      vertex 113 161 0
    endloop
  endfacet
  facet normal 0 1 -0
    outer loop
      vertex 113 184 0
      vertex 90 184 0.299999
      vertex 113 184 0.299999
    endloop
  endfacet
  facet normal 0 1 0
    outer loop
      vertex 90 184 0.299999
      vertex 113 184 0
      vertex 90 184 0
    endloop
  endfacet
  facet normal 0 0 -1
    outer loop
      vertex 113 161 0
      vertex 112 162 0
      vertex 113 184 0
    endloop
  endfacet
  facet normal 0 0 -1
    outer loop
      vertex 113 161 0
      vertex 91 162 0
      vertex 112 162 0
    endloop
  endfacet
  facet normal -0 0 -1
    outer loop
      vertex 91 162 0
      vertex 90 161 0
      vertex 91 183 0
    endloop
  endfacet
  facet normal 0 0 -1
    outer loop
      vertex 90 161 0
      vertex 91 162 0
      vertex 113 161 0
    endloop
  endfacet
  facet normal 0 0 -1
    outer loop
      vertex 112 183 0
      vertex 113 184 0
      vertex 112 162 0
    endloop
  endfacet
  facet normal 0 0 -1
    outer loop
      vertex 91 183 0
      vertex 113 184 0
      vertex 112 183 0
    endloop
  endfacet
  facet normal 0 0 -1
    outer loop
      vertex 91 183 0
      vertex 90 184 0
      vertex 113 184 0
    endloop
  endfacet
  facet normal 0 0 -1
    outer loop
      vertex 90 184 0
      vertex 91 183 0
      vertex 90 161 0
    endloop
  endfacet
  facet normal 0 -1 0
    outer loop
      vertex 90 161 0
      vertex 113 161 0.299999
      vertex 90 161 0.299999
    endloop
  endfacet
  facet normal 0 -1 -0
    outer loop
      vertex 113 161 0.299999
      vertex 90 161 0
      vertex 113 161 0
    endloop
  endfacet
  facet normal 1 -0 0
    outer loop
      vertex 91 162 0.299999
      vertex 91 183 0
      vertex 91 183 0.299999
    endloop
  endfacet
  facet normal 1 0 0
    outer loop
      vertex 91 183 0
      vertex 91 162 0.299999
      vertex 91 162 0
    endloop
  endfacet
  facet normal -1 0 0
    outer loop
      vertex 112 162 0
      vertex 112 183 0.299999
      vertex 112 183 0
    endloop
  endfacet
  facet normal -1 -0 0
    outer loop
      vertex 112 183 0.299999
      vertex 112 162 0
      vertex 112 162 0.299999
    endloop
  endfacet
  facet normal 0 1 -0
    outer loop
      vertex 112 162 0
      vertex 91 162 0.299999
      vertex 112 162 0.299999
    endloop
  endfacet
  facet normal 0 1 0
    outer loop
      vertex 91 162 0.299999
      vertex 112 162 0
      vertex 91 162 0
    endloop
  endfacet
  facet normal 0 -1 0
    outer loop
      vertex 91 183 0
      vertex 112 183 0.299999
      vertex 91 183 0.299999
    endloop
  endfacet
  facet normal 0 -1 -0
    outer loop
      vertex 112 183 0.299999
      vertex 91 183 0
      vertex 112 183 0
    endloop
  endfacet
  facet normal -1 0 0
    outer loop
      vertex 91.5 162.5 0
      vertex 91.5 182.5 0.299999
      vertex 91.5 182.5 0
    endloop
  endfacet
  facet normal -1 -0 0
    outer loop
      vertex 91.5 182.5 0.299999
      vertex 91.5 162.5 0
      vertex 91.5 162.5 0.299999
    endloop
  endfacet
  facet normal -0 0 1
    outer loop
      vertex 91.5 182.5 0.299999
      vertex 111.5 162.5 0.299999
      vertex 111.5 182.5 0.299999
    endloop
  endfacet
  facet normal 0 0 1
    outer loop
      vertex 111.5 162.5 0.299999
      vertex 91.5 182.5 0.299999
      vertex 91.5 162.5 0.299999
    endloop
  endfacet
  facet normal 1 -0 0
    outer loop
      vertex 111.5 162.5 0.299999
      vertex 111.5 182.5 0
      vertex 111.5 182.5 0.299999
    endloop
  endfacet
  facet normal 1 0 0
    outer loop
      vertex 111.5 182.5 0
      vertex 111.5 162.5 0.299999
      vertex 111.5 162.5 0
    endloop
  endfacet
  facet normal 0 1 -0
    outer loop
      vertex 111.5 182.5 0
      vertex 91.5 182.5 0.299999
      vertex 111.5 182.5 0.299999
    endloop
  endfacet
  facet normal 0 1 0
    outer loop
      vertex 91.5 182.5 0.299999
      vertex 111.5 182.5 0
      vertex 91.5 182.5 0
    endloop
  endfacet
  facet normal 0 0 -1
    outer loop
      vertex 91.5 162.5 0
      vertex 111.5 182.5 0
      vertex 111.5 162.5 0
    endloop
  endfacet
  facet normal -0 0 -1
    outer loop
      vertex 111.5 182.5 0
      vertex 91.5 162.5 0
      vertex 91.5 182.5 0
    endloop
  endfacet
  facet normal 0 -1 0
    outer loop
      vertex 91.5 162.5 0
      vertex 111.5 162.5 0.299999
      vertex 91.5 162.5 0.299999
    endloop
  endfacet
  facet normal 0 -1 -0
    outer loop
      vertex 111.5 162.5 0.299999
      vertex 91.5 162.5 0
      vertex 111.5 162.5 0
    endloop
  endfacet
  facet normal -1 0 0
    outer loop
      vertex 175 161 0
      vertex 175 184 0.299999
      vertex 175 184 0
    endloop
  endfacet
  facet normal -1 -0 0
    outer loop
      vertex 175 184 0.299999
      vertex 175 161 0
      vertex 175 161 0.299999
    endloop
  endfacet
  facet normal 0 0 1
    outer loop
      vertex 198 184 0.299999
      vertex 197 183 0.299999
      vertex 198 161 0.299999
    endloop
  endfacet
  facet normal 0 0 1
    outer loop
      vertex 198 184 0.299999
      vertex 176 183 0.299999
      vertex 197 183 0.299999
    endloop
  endfacet
  facet normal 0 0 1
    outer loop
      vertex 176 183 0.299999
      vertex 175 184 0.299999
      vertex 176 162 0.299999
    endloop
  endfacet
  facet normal -0 0 1
    outer loop
      vertex 175 184 0.299999
      vertex 176 183 0.299999
      vertex 198 184 0.299999
    endloop
  endfacet
  facet normal -0 0 1
    outer loop
      vertex 197 162 0.299999
      vertex 198 161 0.299999
      vertex 197 183 0.299999
    endloop
  endfacet
  facet normal -0 0 1
    outer loop
      vertex 176 162 0.299999
      vertex 198 161 0.299999
      vertex 197 162 0.299999
    endloop
  endfacet
  facet normal 0 0 1
    outer loop
      vertex 176 162 0.299999
      vertex 175 161 0.299999
      vertex 198 161 0.299999
    endloop
  endfacet
  facet normal 0 0 1
    outer loop
      vertex 175 161 0.299999
      vertex 176 162 0.299999
      vertex 175 184 0.299999
    endloop
  endfacet
  facet normal 1 -0 0
    outer loop
      vertex 198 161 0.299999
      vertex 198 184 0
      vertex 198 184 0.299999
    endloop
  endfacet
  facet normal 1 0 0
    outer loop
      vertex 198 184 0
      vertex 198 161 0.299999
      vertex 198 161 0
    endloop
  endfacet
  facet normal 0 1 -0
    outer loop
      vertex 198 184 0
      vertex 175 184 0.299999
      vertex 198 184 0.299999
    endloop
  endfacet
  facet normal 0 1 0
    outer loop
      vertex 175 184 0.299999
      vertex 198 184 0
      vertex 175 184 0
    endloop
  endfacet
  facet normal 0 0 -1
    outer loop
      vertex 198 161 0
      vertex 197 162 0
      vertex 198 184 0
    endloop
  endfacet
  facet normal 0 0 -1
    outer loop
      vertex 198 161 0
      vertex 176 162 0
      vertex 197 162 0
    endloop
  endfacet
  facet normal -0 0 -1
    outer loop
      vertex 176 162 0
      vertex 175 161 0
      vertex 176 183 0
    endloop
  endfacet
  facet normal 0 0 -1
    outer loop
      vertex 175 161 0
      vertex 176 162 0
      vertex 198 161 0
    endloop
  endfacet
  facet normal 0 0 -1
    outer loop
      vertex 197 183 0
      vertex 198 184 0
      vertex 197 162 0
    endloop
  endfacet
  facet normal 0 0 -1
    outer loop
      vertex 176 183 0
      vertex 198 184 0
      vertex 197 183 0
    endloop
  endfacet
  facet normal 0 0 -1
    outer loop
      vertex 176 183 0
      vertex 175 184 0
      vertex 198 184 0
    endloop
  endfacet
  facet normal 0 0 -1
    outer loop
      vertex 175 184 0
      vertex 176 183 0
      vertex 175 161 0
    endloop
  endfacet
  facet normal 0 -1 0
    outer loop
      vertex 175 161 0
      vertex 198 161 0.299999
      vertex 175 161 0.299999
    endloop
  endfacet
  facet normal 0 -1 -0
    outer loop
      vertex 198 161 0.299999
      vertex 175 161 0
      vertex 198 161 0
    endloop
  endfacet
  facet normal 1 -0 0
    outer loop
      vertex 176 162 0.299999
      vertex 176 183 0
      vertex 176 183 0.299999
    endloop
  endfacet
  facet normal 1 0 0
    outer loop
      vertex 176 183 0
      vertex 176 162 0.299999
      vertex 176 162 0
    endloop
  endfacet
  facet normal -1 0 0
    outer loop
      vertex 197 162 0
      vertex 197 183 0.299999
      vertex 197 183 0
    endloop
  endfacet
  facet normal -1 -0 0
    outer loop
      vertex 197 183 0.299999
      vertex 197 162 0
      vertex 197 162 0.299999
    endloop
  endfacet
  facet normal 0 1 -0
    outer loop
      vertex 197 162 0
      vertex 176 162 0.299999
      vertex 197 162 0.299999
    endloop
  endfacet
  facet normal 0 1 0
    outer loop
      vertex 176 162 0.299999
      vertex 197 162 0
      vertex 176 162 0
    endloop
  endfacet
  facet normal 0 -1 0
    outer loop
      vertex 176 183 0
      vertex 197 183 0.299999
      vertex 176 183 0.299999
    endloop
  endfacet
  facet normal 0 -1 -0
    outer loop
      vertex 197 183 0.299999
      vertex 176 183 0
      vertex 197 183 0
    endloop
  endfacet
  facet normal -1 0 0
    outer loop
      vertex 176.5 162.5 0
      vertex 176.5 182.5 0.299999
      vertex 176.5 182.5 0
    endloop
  endfacet
  facet normal -1 -0 0
    outer loop
      vertex 176.5 182.5 0.299999
      vertex 176.5 162.5 0
      vertex 176.5 162.5 0.299999
    endloop
  endfacet
  facet normal -0 0 1
    outer loop
      vertex 176.5 182.5 0.299999
      vertex 196.5 162.5 0.299999
      vertex 196.5 182.5 0.299999
    endloop
  endfacet
  facet normal 0 0 1
    outer loop
      vertex 196.5 162.5 0.299999
      vertex 176.5 182.5 0.299999
      vertex 176.5 162.5 0.299999
    endloop
  endfacet
  facet normal 1 -0 0
    outer loop
      vertex 196.5 162.5 0.299999
      vertex 196.5 182.5 0
      vertex 196.5 182.5 0.299999
    endloop
  endfacet
  facet normal 1 0 0
    outer loop
      vertex 196.5 182.5 0
      vertex 196.5 162.5 0.299999
      vertex 196.5 162.5 0
    endloop
  endfacet
  facet normal 0 1 -0
    outer loop
      vertex 196.5 182.5 0
      vertex 176.5 182.5 0.299999
      vertex 196.5 182.5 0.299999
    endloop
  endfacet
  facet normal 0 1 0
    outer loop
      vertex 176.5 182.5 0.299999
      vertex 196.5 182.5 0
      vertex 176.5 182.5 0
    endloop
  endfacet
  facet normal 0 0 -1
    outer loop
      vertex 176.5 162.5 0
      vertex 196.5 182.5 0
      vertex 196.5 162.5 0
    endloop
  endfacet
  facet normal -0 0 -1
    outer loop
      vertex 196.5 182.5 0
      vertex 176.5 162.5 0
      vertex 176.5 182.5 0
    endloop
  endfacet
  facet normal 0 -1 0
    outer loop
      vertex 176.5 162.5 0
      vertex 196.5 162.5 0.299999
      vertex 176.5 162.5 0.299999
    endloop
  endfacet
  facet normal 0 -1 -0
    outer loop
      vertex 196.5 162.5 0.299999
      vertex 176.5 162.5 0
      vertex 196.5 162.5 0
    endloop
  endfacet
endsolid OpenSCAD_Model
